<svg width="155" height="140" viewBox="0 0 155 140" fill="none" xmlns="http://www.w3.org/2000/svg">
<rect x="0.441011" y="0.441011" width="154.118" height="139.118" rx="6.61517" fill="#F1EE83" stroke="black" stroke-width="0.882023"/>
<rect x="0.441011" y="110.441" width="154.118" height="29.118" rx="6.61517" fill="#F1EE83" stroke="black" stroke-width="0.882023"/>
<mask id="path-3-inside-1_201_3305" fill="white">
<path fill-rule="evenodd" clip-rule="evenodd" d="M118.098 16C121.91 16 125 19.0903 125 22.9024V42.0976C125 45.9097 121.91 49 118.098 49H100.249L95 54L89.7514 49H70.9024C67.0903 49 64 45.9097 64 42.0976V22.9024C64 19.0903 67.0903 16 70.9024 16H118.098Z"/>
</mask>
<path fill-rule="evenodd" clip-rule="evenodd" d="M118.098 16C121.91 16 125 19.0903 125 22.9024V42.0976C125 45.9097 121.91 49 118.098 49H100.249L95 54L89.7514 49H70.9024C67.0903 49 64 45.9097 64 42.0976V22.9024C64 19.0903 67.0903 16 70.9024 16H118.098Z" fill="black"/>
<path d="M100.249 49V48.3098H99.9725L99.7726 48.5002L100.249 49ZM95 54L94.5239 54.4998L95 54.9533L95.4761 54.4998L95 54ZM89.7514 49L90.2275 48.5002L90.0275 48.3098H89.7514V49ZM125.69 22.9024C125.69 18.7091 122.291 15.3098 118.098 15.3098V16.6902C121.528 16.6902 124.31 19.4715 124.31 22.9024H125.69ZM125.69 42.0976V22.9024H124.31V42.0976H125.69ZM118.098 49.6902C122.291 49.6902 125.69 46.2909 125.69 42.0976H124.31C124.31 45.5285 121.528 48.3098 118.098 48.3098V49.6902ZM100.249 49.6902H118.098V48.3098H100.249V49.6902ZM99.7726 48.5002L94.5239 53.5002L95.4761 54.4998L100.725 49.4998L99.7726 48.5002ZM95.4761 53.5002L90.2275 48.5002L89.2753 49.4998L94.5239 54.4998L95.4761 53.5002ZM70.9024 49.6902H89.7514V48.3098H70.9024V49.6902ZM63.3098 42.0976C63.3098 46.2909 66.7091 49.6902 70.9024 49.6902V48.3098C67.4715 48.3098 64.6902 45.5285 64.6902 42.0976H63.3098ZM63.3098 22.9024V42.0976H64.6902V22.9024H63.3098ZM70.9024 15.3098C66.7091 15.3098 63.3098 18.7091 63.3098 22.9024H64.6902C64.6902 19.4715 67.4715 16.6902 70.9024 16.6902V15.3098ZM118.098 15.3098H70.9024V16.6902H118.098V15.3098Z" fill="black" mask="url(#path-3-inside-1_201_3305)"/>
<path d="M73.2556 37.76V33.58H69.2556V32.22H73.2556V28.04H74.7756V32.22H78.7756V33.58H74.7756V37.76H73.2556ZM90.7478 39H81.4278V37.28L86.0878 33.08C86.7678 32.4667 87.3278 31.84 87.7678 31.2C88.2078 30.5467 88.4278 29.86 88.4278 29.14V28.9C88.4278 28.06 88.2078 27.4133 87.7678 26.96C87.3278 26.4933 86.6745 26.26 85.8078 26.26C84.9545 26.26 84.2945 26.48 83.8278 26.92C83.3745 27.3467 83.0345 27.92 82.8078 28.64L81.3078 28.08C81.4411 27.6667 81.6211 27.2667 81.8478 26.88C82.0878 26.48 82.3878 26.1267 82.7478 25.82C83.1078 25.5133 83.5411 25.2667 84.0478 25.08C84.5678 24.8933 85.1678 24.8 85.8478 24.8C86.5411 24.8 87.1545 24.9 87.6878 25.1C88.2345 25.3 88.6878 25.58 89.0478 25.94C89.4211 26.3 89.7011 26.7267 89.8878 27.22C90.0878 27.7133 90.1878 28.2533 90.1878 28.84C90.1878 29.3733 90.1078 29.8733 89.9478 30.34C89.8011 30.8067 89.5878 31.2533 89.3078 31.68C89.0411 32.1067 88.7145 32.5267 88.3278 32.94C87.9545 33.34 87.5345 33.74 87.0678 34.14L83.1678 37.54H90.7478V39ZM93.7 39V37.54H97.7V26.28H97.56L94.04 29.56L93.06 28.5L96.76 25.04H99.38V37.54H103.06V39H93.7ZM107.372 31.88C106.492 31.88 105.772 31.5867 105.212 31C104.666 30.4 104.392 29.5133 104.392 28.34C104.392 27.1667 104.666 26.2867 105.212 25.7C105.772 25.1 106.492 24.8 107.372 24.8C108.252 24.8 108.966 25.1 109.512 25.7C110.072 26.2867 110.352 27.1667 110.352 28.34C110.352 29.5133 110.072 30.4 109.512 31C108.966 31.5867 108.252 31.88 107.372 31.88ZM107.372 30.8C107.852 30.8 108.239 30.6333 108.532 30.3C108.839 29.9667 108.992 29.48 108.992 28.84V27.84C108.992 27.2 108.839 26.7133 108.532 26.38C108.239 26.0467 107.852 25.88 107.372 25.88C106.892 25.88 106.499 26.0467 106.192 26.38C105.899 26.7133 105.752 27.2 105.752 27.84V28.84C105.752 29.48 105.899 29.9667 106.192 30.3C106.499 30.6333 106.892 30.8 107.372 30.8ZM114.192 25.04H115.632L112.432 31.04H110.992L114.192 25.04ZM107.552 33H108.992L105.792 39H104.352L107.552 33ZM112.612 39.24C111.732 39.24 111.012 38.9467 110.452 38.36C109.906 37.76 109.632 36.8733 109.632 35.7C109.632 34.5267 109.906 33.6467 110.452 33.06C111.012 32.46 111.732 32.16 112.612 32.16C113.492 32.16 114.206 32.46 114.752 33.06C115.312 33.6467 115.592 34.5267 115.592 35.7C115.592 36.8733 115.312 37.76 114.752 38.36C114.206 38.9467 113.492 39.24 112.612 39.24ZM112.612 38.16C113.092 38.16 113.479 37.9933 113.772 37.66C114.079 37.3267 114.232 36.84 114.232 36.2V35.2C114.232 34.56 114.079 34.0733 113.772 33.74C113.479 33.4067 113.092 33.24 112.612 33.24C112.132 33.24 111.739 33.4067 111.432 33.74C111.139 34.0733 110.992 34.56 110.992 35.2V36.2C110.992 36.84 111.139 37.3267 111.432 37.66C111.739 37.9933 112.132 38.16 112.612 38.16Z" fill="white"/>
<path d="M11 104L43.5283 77L73.2944 85.647L99.0918 63H124.889L142 30" stroke="black" stroke-width="0.882023" stroke-linecap="round"/>
<circle cx="94.7054" cy="65.5882" r="6.14722" fill="white" stroke="black" stroke-width="0.882023"/>
<circle cx="43.5293" cy="78.1177" r="3.55899" fill="white" stroke="black" stroke-width="0.882023"/>
<g clip-path="url(#clip0_201_3305)">
<mask id="mask0_201_3305" style="mask-type:luminance" maskUnits="userSpaceOnUse" x="6" y="7" width="34" height="33">
<path d="M6.99902 7H39.999V40H6.99902V7Z" fill="white"/>
</mask>
<g mask="url(#mask0_201_3305)">
<path d="M7.9668 10.9316H12.8652L17.6992 28.334H35.1016L39.0332 14.7988H13.9395" fill="white"/>
<path d="M7.9668 10.9316H12.8652L17.6992 28.334H35.1016L39.0332 14.7988H13.9395" stroke="black" stroke-width="0.882023" stroke-miterlimit="10" stroke-linecap="round" stroke-linejoin="round"/>
<path d="M22.5332 34.1348C22.5332 35.2027 21.6675 36.0684 20.5996 36.0684C19.5317 36.0684 18.666 35.2027 18.666 34.1348C18.666 33.0668 19.5317 32.2012 20.5996 32.2012C21.6675 32.2012 22.5332 33.0668 22.5332 34.1348Z" fill="white" stroke="black" stroke-width="0.882023" stroke-miterlimit="10" stroke-linecap="round" stroke-linejoin="round"/>
<path d="M34.1348 34.1348C34.1348 35.2027 33.269 36.0684 32.2012 36.0684C31.1333 36.0684 30.2676 35.2027 30.2676 34.1348C30.2676 33.0668 31.1333 32.2012 32.2012 32.2012C33.269 32.2012 34.1348 33.0668 34.1348 34.1348Z" fill="white" stroke="black" stroke-width="0.882023" stroke-miterlimit="10" stroke-linecap="round" stroke-linejoin="round"/>
<path d="M19.6328 20.5996H33.168H19.6328Z" fill="white"/>
<path d="M19.6328 20.5996H33.168" stroke="black" stroke-width="0.882023" stroke-miterlimit="10" stroke-linecap="round" stroke-linejoin="round"/>
<path d="M21.5664 24.4668H31.2344H21.5664Z" fill="white"/>
<path d="M21.5664 24.4668H31.2344" stroke="black" stroke-width="0.882023" stroke-miterlimit="10" stroke-linecap="round" stroke-linejoin="round"/>
</g>
</g>
<path d="M144.464 25L144.464 31.9282L138.464 28.4641L144.464 25Z" fill="black"/>
<mask id="mask1_201_3305" style="mask-type:luminance" maskUnits="userSpaceOnUse" x="129" y="116" width="19" height="19">
<path d="M148 116H129V135H148V116Z" fill="white"/>
</mask>
<g mask="url(#mask1_201_3305)">
<path d="M138.524 135C138.224 135 137.971 134.783 137.899 134.492C137.667 133.566 137.225 132.58 136.57 131.536C135.795 130.283 134.69 129.12 133.255 128.048C132.007 127.105 130.759 126.462 129.511 126.119C129.216 126.037 129 125.775 129 125.469C129 125.168 129.207 124.909 129.496 124.827C130.72 124.477 131.899 123.91 133.033 123.125C134.336 122.218 135.424 121.129 136.298 119.859C137.071 118.728 137.602 117.609 137.891 116.503C137.966 116.213 138.221 116 138.521 116C138.824 116 139.081 116.218 139.155 116.511C139.321 117.175 139.581 117.854 139.935 118.548C140.38 119.406 140.949 120.23 141.642 121.022C142.351 121.797 143.143 122.498 144.017 123.125C145.159 123.935 146.32 124.504 147.501 124.832C147.79 124.912 148 125.17 148 125.47C148 125.775 147.784 126.035 147.49 126.116C146.742 126.321 145.972 126.652 145.18 127.108C144.223 127.669 143.332 128.337 142.508 129.112C141.683 129.871 141.007 130.671 140.479 131.512C139.824 132.558 139.38 133.551 139.15 134.491C139.078 134.782 138.824 135 138.524 135Z" fill="black"/>
</g>
<defs>
<clipPath id="clip0_201_3305">
<rect width="42" height="42" fill="white" transform="translate(7 7)"/>
</clipPath>
</defs>
</svg>
