<svg width="206" height="55" viewBox="0 0 206 55" fill="none" xmlns="http://www.w3.org/2000/svg">
<rect x="0.5" y="0.5" width="204.024" height="53.6585" rx="26.8293" fill="#E2C6FF"/>
<rect x="0.5" y="0.5" width="204.024" height="53.6585" rx="26.8293" stroke="black"/>
<circle cx="27.3293" cy="27.3293" r="17.3293" fill="black"/>
<path fill-rule="evenodd" clip-rule="evenodd" d="M28.1505 15.8293H26.5077V25.3462L19.7782 18.6168L18.6165 19.7785L25.346 26.5079H15.8291V28.1508H25.346L18.6165 34.8802L19.7782 36.0419L26.5077 29.3124V38.8293H28.1505V29.3124L34.88 36.0419L36.0416 34.8802L29.3122 28.1508H38.8291V26.5079H29.3122L36.0416 19.7784L34.88 18.6168L28.1505 25.3462V15.8293Z" fill="white"/>
<path d="M55.0035 19.8138H59.9729C61.1919 19.8138 62.1456 20.1509 62.834 20.8249C63.5224 21.499 63.8666 22.4455 63.8666 23.6645C63.8666 24.5967 63.6658 25.3353 63.2642 25.8803C62.8627 26.4109 62.3177 26.7838 61.6293 26.9989V27.0419C62.5041 27.2284 63.1925 27.6228 63.6945 28.2251C64.2108 28.8131 64.4689 29.6234 64.4689 30.656C64.4689 31.2583 64.3757 31.8176 64.1892 32.3339C64.0028 32.8359 63.7375 33.2733 63.3933 33.6462C63.0491 34.0191 62.6332 34.3131 62.1456 34.5282C61.6723 34.729 61.1417 34.8293 60.5537 34.8293H55.0035V19.8138ZM60.231 33.7107C61.1775 33.7107 61.8946 33.4741 62.3822 33.0008C62.8698 32.5275 63.1136 31.9037 63.1136 31.1292V30.2472C63.1136 29.4728 62.8698 28.849 62.3822 28.3757C61.8946 27.9024 61.1775 27.6658 60.231 27.6658H56.2943V33.7107H60.231ZM59.8653 26.5902C60.7258 26.5902 61.3783 26.3751 61.8229 25.9448C62.2818 25.5146 62.5113 24.9337 62.5113 24.2023V23.3418C62.5113 22.6104 62.2818 22.0296 61.8229 21.5993C61.3783 21.1548 60.7258 20.9325 59.8653 20.9325H56.2943V26.5902H59.8653ZM67.6013 33.7752H71.0863V24.7832H67.6013V23.7291H72.3124V26.2675H72.3985C72.6423 25.4931 73.0582 24.8764 73.6462 24.4174C74.2485 23.9585 75.0373 23.7291 76.0125 23.7291H77.9271V24.9337H75.6468C74.6429 24.9337 73.8326 25.2349 73.216 25.8372C72.6136 26.4252 72.3124 27.2212 72.3124 28.2251V33.7752H76.83V34.8293H67.6013V33.7752ZM89.1266 34.8293C88.6246 34.8293 88.2661 34.7074 88.051 34.4636C87.8359 34.2198 87.7139 33.89 87.6853 33.4741V33.0869H87.5777C87.3339 33.6749 86.9323 34.1553 86.373 34.5282C85.8137 34.9011 85.0536 35.0875 84.0927 35.0875C82.9311 35.0875 82.0132 34.8078 81.3392 34.2485C80.6795 33.6749 80.3496 32.8717 80.3496 31.8392C80.3496 31.3515 80.4285 30.9141 80.5862 30.5269C80.7583 30.1253 81.0237 29.7883 81.3822 29.5158C81.7551 29.2433 82.2283 29.0354 82.802 28.892C83.3757 28.7342 84.0784 28.6553 84.9102 28.6553H87.6207V27.3001C87.6207 26.3679 87.3626 25.6723 86.8463 25.2134C86.3443 24.7545 85.6416 24.525 84.7381 24.525C83.2179 24.525 82.1566 25.1345 81.5543 26.3535L80.7153 25.7512C81.0021 25.1058 81.4826 24.568 82.1566 24.1378C82.845 23.6932 83.727 23.4709 84.8026 23.4709C86.0647 23.4709 87.0542 23.8008 87.7713 24.4605C88.4884 25.1058 88.8469 26.0093 88.8469 27.171V33.7537H90.5034V34.8293H89.1266ZM84.2863 34.0549C84.7596 34.0549 85.197 33.9975 85.5986 33.8828C86.0001 33.7681 86.3515 33.6103 86.6527 33.4095C86.9539 33.1944 87.1905 32.9363 87.3626 32.6351C87.5347 32.3339 87.6207 31.9969 87.6207 31.624V29.5804H84.9102C83.7485 29.5804 82.9096 29.7596 82.3933 30.1182C81.8913 30.4624 81.6403 30.9356 81.6403 31.538V32.0973C81.6403 32.7427 81.877 33.2303 82.3502 33.5601C82.8379 33.89 83.4832 34.0549 84.2863 34.0549ZM94.066 34.8293V23.7291H95.2922V25.45H95.3782C95.5933 24.9337 95.9519 24.4748 96.4538 24.0732C96.9701 23.6717 97.6944 23.4709 98.6266 23.4709C99.8313 23.4709 100.763 23.8366 101.423 24.568C102.097 25.2851 102.434 26.3177 102.434 27.6658V34.8293H101.208V27.8809C101.208 26.7336 100.957 25.8946 100.455 25.364C99.9675 24.8333 99.2504 24.568 98.3039 24.568C97.9167 24.568 97.5438 24.6182 97.1853 24.7186C96.8267 24.819 96.504 24.9696 96.2172 25.1704C95.9447 25.3712 95.7224 25.6293 95.5503 25.9448C95.3782 26.246 95.2922 26.6045 95.2922 27.0204V34.8293H94.066ZM113.999 33.0653H113.935C113.619 33.6677 113.175 34.1553 112.601 34.5282C112.042 34.9011 111.339 35.0875 110.493 35.0875C109.102 35.0875 108.019 34.5927 107.245 33.6032C106.47 32.5992 106.083 31.1579 106.083 29.2792C106.083 27.4005 106.47 25.9663 107.245 24.9768C108.019 23.9729 109.102 23.4709 110.493 23.4709C111.339 23.4709 112.042 23.6573 112.601 24.0302C113.175 24.4031 113.619 24.8907 113.935 25.4931H113.999V18.9103H115.226V34.8293H113.999V33.0653ZM110.902 33.9904C111.318 33.9904 111.712 33.933 112.085 33.8183C112.458 33.7035 112.788 33.5386 113.074 33.3235C113.361 33.1084 113.583 32.8431 113.741 32.5275C113.913 32.212 113.999 31.8607 113.999 31.4734V27.085C113.999 26.6977 113.913 26.3464 113.741 26.0309C113.583 25.7153 113.361 25.45 113.074 25.2349C112.788 25.0198 112.458 24.8549 112.085 24.7401C111.712 24.6254 111.318 24.568 110.902 24.568C109.783 24.568 108.915 24.9194 108.299 25.6221C107.696 26.3249 107.395 27.2857 107.395 28.5048V30.0536C107.395 31.2727 107.696 32.2335 108.299 32.9363C108.915 33.639 109.783 33.9904 110.902 33.9904ZM129.437 36.1416C129.437 37.2602 128.978 38.0777 128.06 38.594C127.142 39.1246 125.794 39.3899 124.016 39.3899C122.295 39.3899 121.054 39.1461 120.294 38.6585C119.534 38.1709 119.154 37.4897 119.154 36.6149C119.154 35.9838 119.326 35.4819 119.67 35.109C120.014 34.7505 120.495 34.478 121.112 34.2915V34.1194C120.409 33.847 120.057 33.345 120.057 32.6136C120.057 32.0686 120.244 31.6527 120.617 31.3659C120.99 31.0647 121.449 30.8424 121.994 30.699V30.613C121.334 30.3261 120.818 29.8959 120.445 29.3222C120.086 28.7486 119.907 28.0602 119.907 27.2571C119.907 26.6977 120 26.1886 120.186 25.7297C120.387 25.2564 120.66 24.8549 121.004 24.525C121.362 24.1808 121.793 23.9227 122.295 23.7506C122.797 23.5641 123.356 23.4709 123.973 23.4709C124.862 23.4709 125.622 23.6573 126.253 24.0302V23.5785C126.253 23.2343 126.332 22.9618 126.49 22.761C126.662 22.5459 126.934 22.4383 127.307 22.4383H129.48V23.5139H126.941V24.525C127.3 24.8549 127.572 25.2492 127.759 25.7082C127.96 26.1671 128.06 26.6834 128.06 27.2571C128.06 27.8164 127.96 28.3255 127.759 28.7844C127.572 29.2433 127.3 29.6449 126.941 29.9891C126.583 30.319 126.153 30.5771 125.651 30.7635C125.149 30.9356 124.589 31.0217 123.973 31.0217C123.772 31.0217 123.585 31.0145 123.413 31.0002C123.241 30.9858 123.055 30.9572 122.854 30.9141C122.395 31.0289 121.994 31.201 121.649 31.4304C121.305 31.6599 121.133 31.9682 121.133 32.3554C121.133 33.0008 121.735 33.3235 122.94 33.3235H125.586C126.934 33.3235 127.909 33.5816 128.512 34.0979C129.128 34.5999 129.437 35.2811 129.437 36.1416ZM128.275 36.1846C128.275 35.654 128.074 35.2309 127.673 34.9154C127.286 34.6142 126.59 34.4636 125.586 34.4636H121.95C121.449 34.6214 121.054 34.8509 120.767 35.152C120.495 35.4675 120.359 35.8763 120.359 36.3782C120.359 36.9662 120.595 37.4467 121.068 37.8195C121.556 38.2068 122.288 38.4004 123.263 38.4004H124.704C125.808 38.4004 126.676 38.2139 127.307 37.8411C127.952 37.4825 128.275 36.9304 128.275 36.1846ZM123.973 30.0536C124.905 30.0536 125.6 29.8242 126.059 29.3652C126.533 28.9063 126.769 28.3183 126.769 27.6012V26.8913C126.769 26.1599 126.533 25.5719 126.059 25.1273C125.6 24.6684 124.905 24.439 123.973 24.439C123.055 24.439 122.359 24.6684 121.886 25.1273C121.427 25.5719 121.198 26.1599 121.198 26.8913V27.6012C121.198 28.3183 121.434 28.9063 121.907 29.3652C122.381 29.8242 123.069 30.0536 123.973 30.0536ZM132.096 33.7752H135.581V24.7832H132.096V23.7291H136.807V26.2675H136.893C137.137 25.4931 137.553 24.8764 138.141 24.4174C138.743 23.9585 139.532 23.7291 140.507 23.7291H142.422V24.9337H140.141C139.138 24.9337 138.327 25.2349 137.711 25.8372C137.108 26.4252 136.807 27.2212 136.807 28.2251V33.7752H141.325V34.8293H132.096V33.7752ZM149.77 35.0875C148.25 35.0875 147.06 34.5784 146.199 33.5601C145.353 32.5419 144.93 31.1149 144.93 29.2792C144.93 27.4435 145.353 26.0165 146.199 24.9983C147.06 23.98 148.25 23.4709 149.77 23.4709C151.291 23.4709 152.474 23.98 153.32 24.9983C154.18 26.0165 154.611 27.4435 154.611 29.2792C154.611 31.1149 154.18 32.5419 153.32 33.5601C152.474 34.5784 151.291 35.0875 149.77 35.0875ZM149.77 34.0119C150.86 34.0119 151.721 33.6677 152.352 32.9793C152.983 32.2909 153.298 31.287 153.298 29.9676V28.5908C153.298 27.2714 152.983 26.2675 152.352 25.5791C151.721 24.8907 150.86 24.5465 149.77 24.5465C148.681 24.5465 147.82 24.8907 147.189 25.5791C146.558 26.2675 146.242 27.2714 146.242 28.5908V29.9676C146.242 31.287 146.558 32.2909 147.189 32.9793C147.82 33.6677 148.681 34.0119 149.77 34.0119ZM156.926 23.7291H158.023L159.593 33.7537H159.744L161.981 23.7291H163.401L165.638 33.7537H165.789L167.338 23.7291H168.413L166.563 34.8293H164.907L162.755 24.9983H162.626L160.432 34.8293H158.776L156.926 23.7291ZM175.611 34.8293C175.009 34.8293 174.564 34.6716 174.278 34.3561C174.005 34.0262 173.869 33.5888 173.869 33.0438V24.7832H169.932V23.7291H173.051C173.367 23.7291 173.589 23.6645 173.718 23.5354C173.847 23.4064 173.912 23.1841 173.912 22.8686V19.8138H175.095V23.7291H180.387V24.7832H175.095V33.7752H180.387V34.8293H175.611ZM184.358 18.9103H185.585V25.45H185.671C185.886 24.9337 186.244 24.4748 186.746 24.0732C187.263 23.6717 187.987 23.4709 188.919 23.4709C190.124 23.4709 191.056 23.8366 191.716 24.568C192.39 25.2851 192.727 26.3177 192.727 27.6658V34.8293H191.5V27.8809C191.5 26.7336 191.249 25.8946 190.748 25.364C190.26 24.8333 189.543 24.568 188.596 24.568C188.209 24.568 187.836 24.6182 187.478 24.7186C187.119 24.819 186.796 24.9696 186.51 25.1704C186.237 25.3712 186.015 25.6293 185.843 25.9448C185.671 26.246 185.585 26.6045 185.585 27.0204V34.8293H184.358V18.9103Z" fill="black"/>
</svg>
