<svg width="177" height="152" viewBox="0 0 177 152" fill="none" xmlns="http://www.w3.org/2000/svg">
<rect x="0.528998" y="0.528998" width="175.627" height="150.235" rx="7.93497" fill="#BBECFF" stroke="black" stroke-width="1.058"/>
<rect x="0.528998" y="54.4868" width="175.627" height="96.2776" rx="7.93497" fill="#BBECFF" stroke="black" stroke-width="1.058"/>
<g clip-path="url(#clip0_185_508)">
<rect x="12.3008" y="90.9072" width="45.8487" height="45.8487" rx="22.9244" fill="white"/>
<path d="M35.2251 135.323C37.5534 135.323 40.0518 133.398 42.0487 129.404C43.0338 127.443 43.8307 125.079 44.3949 122.428H26.0554C26.6106 125.07 27.4165 127.434 28.4016 129.404C30.3985 133.398 32.8969 135.323 35.2251 135.323ZM25.7868 120.995H44.6635C45.0486 118.757 45.2546 116.348 45.2546 113.832C45.2546 111.315 45.0486 108.906 44.6635 106.668H25.7868C25.4017 108.906 25.1957 111.315 25.1957 113.832C25.1957 116.348 25.4017 118.757 25.7868 120.995ZM26.0554 105.235H44.3949C43.8397 102.584 43.0338 100.229 42.0487 98.2591C40.0518 94.2653 37.5534 92.34 35.2251 92.34C32.8969 92.34 30.3985 94.2653 28.4016 98.2591C27.4165 100.22 26.6196 102.584 26.0554 105.235ZM46.1142 106.668C46.4814 108.924 46.6873 111.333 46.6873 113.832C46.6873 116.33 46.4903 118.739 46.1142 120.995H55.4899C56.2779 118.757 56.7167 116.348 56.7167 113.832C56.7167 111.315 56.2869 108.906 55.4899 106.668H46.1142ZM54.9258 105.235C52.2035 99.0113 46.6157 94.319 39.8369 92.8325C42.5681 95.2324 44.7352 99.6919 45.8545 105.235H54.9258ZM24.5958 105.235C25.7151 99.7009 27.8911 95.2324 30.6134 92.8325C23.8346 94.319 18.2468 99.0113 15.5245 105.235H24.5958ZM14.9604 106.668C14.1634 108.906 13.7336 111.315 13.7336 113.832C13.7336 116.348 14.1634 118.757 14.9604 120.995H24.3361C23.9689 118.739 23.763 116.33 23.763 113.832C23.763 111.333 23.96 108.924 24.3361 106.668H14.9604ZM39.8369 134.831C46.6157 133.344 52.2035 128.652 54.9258 122.428H45.8545C44.7352 127.962 42.5591 132.431 39.8369 134.831ZM30.6224 134.831C27.8911 132.431 25.7241 127.971 24.6047 122.428H15.5245C18.2468 128.652 23.8346 133.344 30.6224 134.831ZM35.2251 136.756C29.1452 136.756 23.3143 134.341 19.0152 130.042C14.716 125.742 12.3008 119.912 12.3008 113.832C12.3008 107.752 14.716 101.921 19.0152 97.6216C23.3143 93.3225 29.1452 90.9072 35.2251 90.9072C41.3051 90.9072 47.136 93.3225 51.4351 97.6216C55.7343 101.921 58.1495 107.752 58.1495 113.832C58.1495 119.912 55.7343 125.742 51.4351 130.042C47.136 134.341 41.3051 136.756 35.2251 136.756Z" fill="black"/>
</g>
<path d="M20.8538 33.8092V27.2536H14.5805V25.1207H20.8538V18.5651H23.2376V25.1207H29.5109V27.2536H23.2376V33.8092H20.8538ZM34.1095 35.7539V33.4642H40.3828V15.8048H40.1632L34.6427 20.9489L33.1058 19.2865L38.9086 13.8601H43.0176V33.4642H48.789V35.7539H34.1095ZM59.6609 36.1303C58.3854 36.1303 57.2666 35.9735 56.3047 35.6598C55.3428 35.3252 54.5377 34.8756 53.8895 34.311C53.2622 33.7465 52.7812 33.0773 52.4466 32.3036C52.133 31.5299 51.9762 30.6934 51.9762 29.7943C51.9762 28.2887 52.3839 27.0968 53.1994 26.2185C54.015 25.3402 55.0919 24.7234 56.4302 24.3679V24.1169C55.2592 23.7196 54.3286 23.0819 53.6386 22.2036C52.9694 21.3044 52.6348 20.2275 52.6348 18.9728C52.6348 17.3 53.2517 15.9721 54.4855 14.9893C55.7192 13.9856 57.4444 13.4837 59.6609 13.4837C61.8775 13.4837 63.6027 13.9856 64.8364 14.9893C66.0702 15.9721 66.687 17.3 66.687 18.9728C66.687 20.2275 66.342 21.3044 65.6519 22.2036C64.9828 23.0819 64.0627 23.7196 62.8917 24.1169V24.3679C64.23 24.7234 65.3069 25.3402 66.1224 26.2185C66.938 27.0968 67.3457 28.2887 67.3457 29.7943C67.3457 30.6934 67.1784 31.5299 66.8439 32.3036C66.5302 33.0773 66.0492 33.7465 65.401 34.311C64.7528 34.8756 63.9477 35.3252 62.9858 35.6598C62.0448 35.9735 60.9365 36.1303 59.6609 36.1303ZM59.6609 33.9033C61.2083 33.9033 62.4212 33.5583 63.2994 32.8682C64.1777 32.1781 64.6168 31.2058 64.6168 29.9511V29.261C64.6168 28.0064 64.1777 27.034 63.2994 26.344C62.4421 25.6539 61.2293 25.3089 59.6609 25.3089C58.0926 25.3089 56.8693 25.6539 55.9911 26.344C55.1337 27.034 54.705 28.0064 54.705 29.261V29.9511C54.705 31.2058 55.1442 32.1781 56.0224 32.8682C56.9007 33.5583 58.1135 33.9033 59.6609 33.9033ZM59.6609 23.176C61.0829 23.176 62.1598 22.8727 62.8917 22.2663C63.6445 21.6599 64.0209 20.7921 64.0209 19.6629V19.2238C64.0209 18.0946 63.634 17.2268 62.8603 16.6204C62.1075 16.0139 61.0411 15.7107 59.6609 15.7107C58.2808 15.7107 57.2039 16.0139 56.4302 16.6204C55.6774 17.2268 55.301 18.0946 55.301 19.2238V19.6629C55.301 20.7921 55.6669 21.6599 56.3988 22.2663C57.1516 22.8727 58.239 23.176 59.6609 23.176ZM74.3596 24.5874C72.9794 24.5874 71.8502 24.1274 70.972 23.2073C70.1146 22.2663 69.686 20.8757 69.686 19.0356C69.686 17.1954 70.1146 15.8153 70.972 14.8952C71.8502 13.9542 72.9794 13.4837 74.3596 13.4837C75.7397 13.4837 76.8584 13.9542 77.7158 14.8952C78.594 15.8153 79.0332 17.1954 79.0332 19.0356C79.0332 20.8757 78.594 22.2663 77.7158 23.2073C76.8584 24.1274 75.7397 24.5874 74.3596 24.5874ZM74.3596 22.8937C75.1124 22.8937 75.7188 22.6323 76.1788 22.1095C76.6598 21.5867 76.9002 20.8235 76.9002 19.8197V18.2514C76.9002 17.2477 76.6598 16.4844 76.1788 15.9617C75.7188 15.4389 75.1124 15.1775 74.3596 15.1775C73.6068 15.1775 72.9899 15.4389 72.5089 15.9617C72.0489 16.4844 71.8189 17.2477 71.8189 18.2514V19.8197C71.8189 20.8235 72.0489 21.5867 72.5089 22.1095C72.9899 22.6323 73.6068 22.8937 74.3596 22.8937ZM85.0555 13.8601H87.3139L82.2953 23.2701H80.0369L85.0555 13.8601ZM74.6419 26.344H76.9002L71.8816 35.7539H69.6232L74.6419 26.344ZM82.5776 36.1303C81.1974 36.1303 80.0683 35.6703 79.19 34.7502C78.3326 33.8092 77.904 32.4186 77.904 30.5784C77.904 28.7383 78.3326 27.3581 79.19 26.4381C80.0683 25.4971 81.1974 25.0266 82.5776 25.0266C83.9577 25.0266 85.0764 25.4971 85.9338 26.4381C86.812 27.3581 87.2512 28.7383 87.2512 30.5784C87.2512 32.4186 86.812 33.8092 85.9338 34.7502C85.0764 35.6703 83.9577 36.1303 82.5776 36.1303ZM82.5776 34.4365C83.3304 34.4365 83.9368 34.1751 84.3968 33.6524C84.8778 33.1296 85.1183 32.3663 85.1183 31.3626V29.7943C85.1183 28.7906 84.8778 28.0273 84.3968 27.5045C83.9368 26.9818 83.3304 26.7204 82.5776 26.7204C81.8248 26.7204 81.2079 26.9818 80.7269 27.5045C80.2669 28.0273 80.0369 28.7906 80.0369 29.7943V31.3626C80.0369 32.3663 80.2669 33.1296 80.7269 33.6524C81.2079 34.1751 81.8248 34.4365 82.5776 34.4365Z" fill="black"/>
<rect x="98.3936" y="122.728" width="8.46397" height="11.638" rx="4.23198" fill="black"/>
<rect x="112.147" y="106.858" width="8.46397" height="27.5079" rx="4.23198" fill="black"/>
<rect x="125.901" y="110.032" width="8.46397" height="24.3339" rx="4.23198" fill="black"/>
<rect x="139.655" y="96.2778" width="8.46397" height="38.0879" rx="4.23198" fill="black"/>
<rect x="153.409" y="64.5378" width="8.46397" height="69.8277" rx="4.23198" fill="black"/>
<path d="M98.4288 22.7473V21.8382H100.79V14.1858H98.4288V13.2767H104.29V14.1858H101.929V21.8382H104.29V22.7473H98.4288ZM106.754 22.7473V15.7461H107.84V16.8858H107.894C107.966 16.714 108.057 16.5512 108.165 16.3974C108.274 16.2346 108.405 16.0944 108.559 15.9768C108.722 15.8592 108.912 15.7642 109.129 15.6918C109.346 15.6195 109.599 15.5833 109.889 15.5833C110.621 15.5833 111.209 15.8185 111.653 16.2888C112.096 16.7502 112.317 17.406 112.317 18.2562V22.7473H111.232V18.4462C111.232 17.804 111.092 17.3291 110.811 17.0215C110.531 16.7049 110.119 16.5466 109.577 16.5466C109.359 16.5466 109.147 16.5738 108.939 16.628C108.731 16.6823 108.545 16.7637 108.383 16.8723C108.22 16.9808 108.089 17.121 107.989 17.2929C107.89 17.4647 107.84 17.6637 107.84 17.8899V22.7473H106.754ZM117.875 22.9101C117.369 22.9101 116.916 22.8242 116.518 22.6523C116.129 22.4714 115.799 22.2227 115.528 21.9061C115.256 21.5895 115.048 21.2051 114.904 20.7528C114.768 20.3005 114.7 19.7985 114.7 19.2467C114.7 18.6949 114.772 18.1929 114.917 17.7406C115.062 17.2884 115.27 16.9039 115.541 16.5873C115.813 16.2617 116.143 16.0129 116.532 15.8411C116.921 15.6692 117.364 15.5833 117.861 15.5833C118.54 15.5833 119.092 15.7325 119.517 16.031C119.942 16.3295 120.254 16.7185 120.453 17.1979L119.585 17.6592C119.458 17.2974 119.245 17.017 118.947 16.818C118.657 16.619 118.296 16.5195 117.861 16.5195C117.545 16.5195 117.26 16.5738 117.007 16.6823C116.762 16.7818 116.554 16.9265 116.383 17.1165C116.211 17.3065 116.08 17.5326 115.989 17.7949C115.908 18.0572 115.867 18.3422 115.867 18.6497V19.8437C115.867 20.1513 115.908 20.4362 115.989 20.6985C116.08 20.9608 116.211 21.187 116.383 21.3769C116.554 21.5669 116.767 21.7161 117.02 21.8247C117.274 21.9242 117.563 21.9739 117.889 21.9739C118.359 21.9739 118.748 21.8654 119.055 21.6483C119.363 21.4312 119.607 21.1327 119.788 20.7528L120.562 21.2819C120.354 21.7523 120.028 22.1413 119.585 22.4488C119.15 22.7564 118.581 22.9101 117.875 22.9101ZM122.741 21.8247H124.79V16.6687H122.741V15.7461H125.875V17.51H125.943C126.088 16.9582 126.359 16.5285 126.757 16.221C127.164 15.9044 127.68 15.7461 128.304 15.7461H129.281V16.8316H127.965C127.34 16.8316 126.834 17.0125 126.445 17.3743C126.065 17.7361 125.875 18.211 125.875 18.799V21.8247H128.589V22.7473H122.741V21.8247ZM134.024 22.9101C133.518 22.9101 133.061 22.8242 132.654 22.6523C132.256 22.4805 131.912 22.2362 131.623 21.9197C131.342 21.594 131.125 21.2096 130.971 20.7664C130.818 20.3141 130.741 19.8121 130.741 19.2603C130.741 18.6995 130.818 18.1929 130.971 17.7406C131.134 17.2884 131.356 16.9039 131.636 16.5873C131.917 16.2617 132.251 16.0129 132.64 15.8411C133.038 15.6692 133.477 15.5833 133.956 15.5833C134.427 15.5833 134.852 15.6692 135.232 15.8411C135.621 16.0129 135.951 16.2527 136.222 16.5602C136.494 16.8587 136.702 17.216 136.846 17.6321C136.991 18.0482 137.064 18.505 137.064 19.0025V19.5181H131.88V19.8437C131.88 20.1513 131.93 20.4362 132.03 20.6985C132.129 20.9608 132.269 21.187 132.45 21.3769C132.64 21.5669 132.866 21.7161 133.129 21.8247C133.4 21.9242 133.699 21.9739 134.024 21.9739C134.495 21.9739 134.902 21.8654 135.245 21.6483C135.589 21.4312 135.851 21.1327 136.032 20.7528L136.833 21.2955C136.625 21.7659 136.277 22.1548 135.788 22.4624C135.309 22.7609 134.721 22.9101 134.024 22.9101ZM133.956 16.4788C133.658 16.4788 133.382 16.5331 133.129 16.6416C132.875 16.7502 132.654 16.8994 132.464 17.0894C132.283 17.2793 132.138 17.5055 132.03 17.7678C131.93 18.021 131.88 18.3015 131.88 18.609V18.704H135.897V18.5547C135.897 18.2472 135.847 17.9668 135.747 17.7135C135.657 17.4602 135.526 17.2431 135.354 17.0622C135.191 16.8723 134.988 16.7275 134.743 16.628C134.508 16.5285 134.246 16.4788 133.956 16.4788ZM144.684 22.7473C144.258 22.7473 143.955 22.6388 143.774 22.4217C143.594 22.2046 143.481 21.9332 143.435 21.6076H143.367C143.214 22.0146 142.965 22.3357 142.621 22.5709C142.287 22.7971 141.834 22.9101 141.264 22.9101C140.532 22.9101 139.948 22.7202 139.514 22.3403C139.08 21.9604 138.863 21.4402 138.863 20.7799C138.863 20.1286 139.098 19.6266 139.568 19.2738C140.048 18.9211 140.817 18.7447 141.875 18.7447H143.367V18.0527C143.367 17.5371 143.223 17.1527 142.933 16.8994C142.644 16.6371 142.232 16.5059 141.699 16.5059C141.228 16.5059 140.844 16.6009 140.545 16.7909C140.247 16.9718 140.007 17.2205 139.826 17.5371L139.093 16.9944C139.184 16.8135 139.306 16.6371 139.46 16.4652C139.614 16.2934 139.804 16.1441 140.03 16.0175C140.256 15.8818 140.514 15.7778 140.803 15.7054C141.092 15.624 141.414 15.5833 141.766 15.5833C142.59 15.5833 143.241 15.7913 143.72 16.2074C144.209 16.6235 144.453 17.2024 144.453 17.9442V21.7975H145.43V22.7473H144.684ZM141.454 22.0011C141.735 22.0011 141.988 21.9694 142.214 21.9061C142.449 21.8337 142.653 21.7433 142.825 21.6347C142.997 21.5171 143.128 21.3814 143.218 21.2277C143.318 21.0649 143.367 20.893 143.367 20.7121V19.5588H141.875C141.224 19.5588 140.749 19.6492 140.45 19.8301C140.152 20.0111 140.003 20.2734 140.003 20.6171V20.902C140.003 21.2639 140.129 21.5397 140.382 21.7297C140.645 21.9106 141.002 22.0011 141.454 22.0011ZM150.255 22.9101C149.522 22.9101 148.889 22.788 148.355 22.5438C147.831 22.2905 147.383 21.9558 147.012 21.5397L147.745 20.902C148.079 21.2548 148.446 21.5262 148.844 21.7161C149.242 21.9061 149.721 22.0011 150.282 22.0011C150.825 22.0011 151.268 21.9061 151.612 21.7161C151.964 21.5171 152.141 21.2096 152.141 20.7935C152.141 20.6126 152.105 20.4633 152.032 20.3457C151.969 20.2191 151.878 20.1196 151.761 20.0472C151.643 19.9749 151.512 19.9206 151.367 19.8844C151.223 19.8392 151.069 19.803 150.906 19.7759L149.807 19.6131C149.563 19.5769 149.296 19.5271 149.007 19.4638C148.726 19.4005 148.468 19.301 148.233 19.1653C147.998 19.0206 147.799 18.8306 147.636 18.5954C147.482 18.3603 147.405 18.0527 147.405 17.6728C147.405 17.32 147.473 17.017 147.609 16.7637C147.754 16.5014 147.953 16.2843 148.206 16.1124C148.459 15.9315 148.758 15.8004 149.102 15.719C149.445 15.6285 149.821 15.5833 150.228 15.5833C150.861 15.5833 151.408 15.6828 151.869 15.8818C152.34 16.0808 152.742 16.3567 153.077 16.7094L152.371 17.3743C152.29 17.2748 152.186 17.1753 152.059 17.0758C151.942 16.9672 151.793 16.8723 151.612 16.7909C151.44 16.7004 151.236 16.628 151.001 16.5738C150.766 16.5195 150.495 16.4924 150.187 16.4924C149.635 16.4924 149.21 16.5873 148.912 16.7773C148.622 16.9672 148.477 17.2431 148.477 17.605C148.477 17.7859 148.509 17.9396 148.572 18.0663C148.645 18.1839 148.74 18.2788 148.857 18.3512C148.975 18.4236 149.106 18.4824 149.251 18.5276C149.405 18.5638 149.558 18.5954 149.712 18.6226L150.811 18.7854C151.064 18.8216 151.331 18.8713 151.612 18.9346C151.892 18.998 152.15 19.102 152.385 19.2467C152.62 19.3824 152.815 19.5678 152.968 19.803C153.131 20.0382 153.213 20.3457 153.213 20.7256C153.213 21.4221 152.941 21.9604 152.399 22.3403C151.865 22.7202 151.15 22.9101 150.255 22.9101ZM158.431 22.9101C157.925 22.9101 157.468 22.8242 157.061 22.6523C156.663 22.4805 156.319 22.2362 156.03 21.9197C155.749 21.594 155.532 21.2096 155.378 20.7664C155.225 20.3141 155.148 19.8121 155.148 19.2603C155.148 18.6995 155.225 18.1929 155.378 17.7406C155.541 17.2884 155.763 16.9039 156.043 16.5873C156.324 16.2617 156.658 16.0129 157.047 15.8411C157.445 15.6692 157.884 15.5833 158.363 15.5833C158.834 15.5833 159.259 15.6692 159.639 15.8411C160.028 16.0129 160.358 16.2527 160.629 16.5602C160.901 16.8587 161.109 17.216 161.253 17.6321C161.398 18.0482 161.47 18.505 161.47 19.0025V19.5181H156.287V19.8437C156.287 20.1513 156.337 20.4362 156.437 20.6985C156.536 20.9608 156.676 21.187 156.857 21.3769C157.047 21.5669 157.273 21.7161 157.536 21.8247C157.807 21.9242 158.106 21.9739 158.431 21.9739C158.902 21.9739 159.309 21.8654 159.652 21.6483C159.996 21.4312 160.258 21.1327 160.439 20.7528L161.24 21.2955C161.032 21.7659 160.683 22.1548 160.195 22.4624C159.716 22.7609 159.128 22.9101 158.431 22.9101ZM158.363 16.4788C158.065 16.4788 157.789 16.5331 157.536 16.6416C157.282 16.7502 157.061 16.8994 156.871 17.0894C156.69 17.2793 156.545 17.5055 156.437 17.7678C156.337 18.021 156.287 18.3015 156.287 18.609V18.704H160.304V18.5547C160.304 18.2472 160.254 17.9668 160.154 17.7135C160.064 17.4602 159.933 17.2431 159.761 17.0622C159.598 16.8723 159.394 16.7275 159.15 16.628C158.915 16.5285 158.653 16.4788 158.363 16.4788ZM102.924 42.9567C101.435 42.9567 100.324 42.4159 99.5918 41.3343C98.8707 40.2527 98.5102 38.6943 98.5102 36.6591C98.5102 34.6238 98.8707 33.0654 99.5918 31.9838C100.324 30.9022 101.435 30.3614 102.924 30.3614C103.482 30.3614 103.965 30.437 104.372 30.5882C104.779 30.7394 105.128 30.9429 105.418 31.1988C105.709 31.4547 105.953 31.7454 106.151 32.071C106.349 32.3851 106.523 32.7049 106.674 33.0305L105.418 33.6062C105.314 33.3387 105.192 33.0887 105.052 32.8561C104.912 32.6118 104.744 32.4025 104.546 32.2281C104.36 32.042 104.133 31.8966 103.866 31.7919C103.61 31.6873 103.296 31.6349 102.924 31.6349C101.958 31.6349 101.237 32.0013 100.761 32.734C100.295 33.4666 100.063 34.4436 100.063 35.6647V37.6534C100.063 38.8746 100.295 39.8515 100.761 40.5841C101.237 41.3168 101.958 41.6832 102.924 41.6832C103.296 41.6832 103.61 41.6308 103.866 41.5262C104.133 41.4215 104.36 41.2819 104.546 41.1075C104.744 40.9214 104.912 40.7121 105.052 40.4795C105.192 40.2353 105.314 39.9794 105.418 39.7119L106.674 40.2876C106.523 40.6249 106.349 40.9505 106.151 41.2645C105.953 41.5785 105.709 41.8634 105.418 42.1193C105.128 42.3752 104.779 42.5787 104.372 42.7299C103.965 42.8811 103.482 42.9567 102.924 42.9567ZM110.785 42.7473H109.319V30.5708H113.75C114.878 30.5708 115.739 30.879 116.332 31.4954C116.925 32.1118 117.222 32.9724 117.222 34.0772C117.222 35.0658 116.966 35.8566 116.454 36.4497C115.942 37.0428 115.198 37.3859 114.221 37.479L117.326 42.7473H115.687L112.721 37.5487H110.785V42.7473ZM113.715 36.3102C114.332 36.3102 114.809 36.159 115.146 35.8566C115.495 35.5426 115.669 35.1006 115.669 34.5308V33.6236C115.669 33.0538 115.495 32.6177 115.146 32.3153C114.809 32.0013 114.332 31.8443 113.715 31.8443H110.785V36.3102H113.715ZM123.443 42.9567C122.698 42.9567 122.059 42.8171 121.524 42.538C120.989 42.2472 120.547 41.8344 120.198 41.2994C119.849 40.7644 119.593 40.1073 119.43 39.3281C119.268 38.5489 119.186 37.6592 119.186 36.6591C119.186 35.6705 119.268 34.7866 119.43 34.0074C119.593 33.2166 119.849 32.5537 120.198 32.0187C120.547 31.4837 120.989 31.0767 121.524 30.7976C122.059 30.5068 122.698 30.3614 123.443 30.3614C124.187 30.3614 124.827 30.5068 125.362 30.7976C125.897 31.0767 126.339 31.4837 126.688 32.0187C127.036 32.5537 127.292 33.2166 127.455 34.0074C127.618 34.7866 127.699 35.6705 127.699 36.6591C127.699 37.6592 127.618 38.5489 127.455 39.3281C127.292 40.1073 127.036 40.7644 126.688 41.2994C126.339 41.8344 125.897 42.2472 125.362 42.538C124.827 42.8171 124.187 42.9567 123.443 42.9567ZM123.443 41.6832C123.931 41.6832 124.344 41.5901 124.681 41.4041C125.019 41.2064 125.298 40.933 125.519 40.5841C125.74 40.2353 125.897 39.8166 125.99 39.3281C126.094 38.828 126.147 38.2698 126.147 37.6534V35.6647C126.147 35.0599 126.094 34.5075 125.99 34.0074C125.897 33.5073 125.74 33.0829 125.519 32.734C125.298 32.3851 125.019 32.1176 124.681 31.9315C124.344 31.7338 123.931 31.6349 123.443 31.6349C122.954 31.6349 122.541 31.7338 122.204 31.9315C121.867 32.1176 121.588 32.3851 121.367 32.734C121.146 33.0829 120.983 33.5073 120.878 34.0074C120.785 34.5075 120.739 35.0599 120.739 35.6647V37.6534C120.739 38.2698 120.785 38.828 120.878 39.3281C120.983 39.8166 121.146 40.2353 121.367 40.5841C121.588 40.933 121.867 41.2064 122.204 41.4041C122.541 41.5901 122.954 41.6832 123.443 41.6832Z" fill="black"/>
<defs>
<clipPath id="clip0_185_508">
<rect x="12.3008" y="90.9072" width="45.8487" height="45.8487" rx="22.9244" fill="white"/>
</clipPath>
</defs>
</svg>
