<svg width="90" height="90" viewBox="0 0 90 90" fill="none" xmlns="http://www.w3.org/2000/svg">
<mask id="mask0_193_3240" style="mask-type:luminance" maskUnits="userSpaceOnUse" x="0" y="0" width="90" height="90">
<path d="M90 0H0V90H90V0Z" fill="white"/>
</mask>
<g mask="url(#mask0_193_3240)">
<path d="M65.918 39.5507C65.918 54.113 54.113 65.9179 39.5508 65.9179C24.9885 65.9179 13.1836 54.113 13.1836 39.5507C13.1836 24.9885 24.9885 13.1835 39.5508 13.1835C54.113 13.1835 65.918 24.9885 65.918 39.5507Z" fill="white" stroke="black" stroke-width="2" stroke-miterlimit="10"/>
<path d="M39.5508 -6.14822e-05V5.27338" stroke="black" stroke-width="2" stroke-miterlimit="10"/>
<path d="M39.5508 73.8281V79.1015" stroke="black" stroke-width="2" stroke-miterlimit="10"/>
<path d="M67.5156 11.584L63.7868 15.3128" stroke="black" stroke-width="2" stroke-miterlimit="10"/>
<path d="M15.3135 63.7885L11.5846 67.5174" stroke="black" stroke-width="2" stroke-miterlimit="10"/>
<path d="M79.1016 39.5507H73.8281" stroke="black" stroke-width="2" stroke-miterlimit="10"/>
<path d="M5.27344 39.5507H-4.47035e-07" stroke="black" stroke-width="2" stroke-miterlimit="10"/>
<path d="M15.3135 15.3132L11.5846 11.5843" stroke="black" stroke-width="2" stroke-miterlimit="10"/>
<path d="M78.8236 86.2824L86.2812 78.8245L71.0407 63.584L63.5828 71.0416L78.8236 86.2824Z" fill="white" stroke="black" stroke-width="2" stroke-miterlimit="10"/>
<path d="M58.1953 58.1952L67.3125 67.3126" stroke="black" stroke-width="2" stroke-miterlimit="10"/>
<path d="M47.0078 32.0928L43.2788 43.2795L32.0921 47.0084L35.8211 35.8216L47.0078 32.0928Z" stroke="black" stroke-width="2" stroke-miterlimit="10"/>
</g>
</svg>
